<?xml version="1.0" standalone="no"?>
<!DOCTYPE svg PUBLIC "-//W3C//DTD SVG 20010904//EN"
 "http://www.w3.org/TR/2001/REC-SVG-20010904/DTD/svg10.dtd">
<svg version="1.0" xmlns="http://www.w3.org/2000/svg"
 width="1366.000000pt" height="1366.000000pt" viewBox="0 0 1366.000000 1366.000000"
 preserveAspectRatio="xMidYMid meet">
<metadata>
Created by potrace 1.14, written by Peter Selinger 2001-2017
</metadata>
<g transform="translate(0.000000,1366.000000) scale(0.100000,-0.100000)"
fill="#000000" stroke="none">
<path d="M6522 10204 c-28 -19 -28 -31 0 -40 29 -9 147 -132 154 -161 11 -41
-4 -72 -38 -81 -24 -6 -34 -15 -40 -39 -4 -17 -15 -36 -23 -43 -8 -7 -15 -21
-15 -31 0 -10 -9 -20 -19 -24 -19 -6 -36 -48 -26 -64 2 -5 -4 -11 -15 -14 -22
-6 -30 19 -34 105 -3 63 -22 74 -31 18 -4 -22 -13 -47 -21 -54 -8 -8 -14 -22
-14 -30 0 -9 -4 -16 -10 -16 -5 0 -10 -12 -10 -27 l0 -27 -29 28 c-18 18 -32
43 -36 67 -8 48 -25 61 -25 20 0 -17 -5 -41 -11 -54 -8 -18 -8 -39 0 -78 15
-67 27 -84 48 -63 10 9 23 12 37 8 11 -4 26 -7 33 -7 9 0 10 -18 6 -64 -6 -63
-6 -63 20 -63 27 0 67 41 67 69 0 9 7 27 16 39 19 28 60 29 117 3 24 -11 55
-23 70 -26 28 -7 47 -25 27 -25 -11 0 7 -39 35 -74 11 -15 18 -17 26 -9 9 9 6
19 -10 39 -12 15 -20 29 -18 31 7 7 57 -16 79 -36 25 -24 80 -51 102 -51 29 0
17 37 -27 86 -53 60 -133 177 -154 224 -9 22 -17 77 -19 145 -6 166 -7 170
-73 215 -92 65 -112 85 -105 103 8 21 -5 22 -34 1z"/>
<path d="M6414 9964 c3 -9 6 -20 6 -25 0 -5 9 -9 21 -9 16 0 19 -4 14 -20 -9
-28 10 -25 30 6 9 14 15 26 13 27 -2 1 -17 10 -35 20 -39 21 -57 22 -49 1z"/>
<path d="M5950 9936 c0 -7 7 -19 15 -26 16 -13 20 -3 9 24 -8 20 -24 21 -24 2z"/>
<path d="M6390 9854 c-11 -12 -11 -18 2 -30 14 -14 15 -12 14 15 -1 36 0 35
-16 15z"/>
<path d="M5843 9516 c-39 -19 -76 -43 -81 -53 -6 -11 -13 -47 -15 -81 -2 -38
-10 -69 -20 -80 -10 -11 -18 -43 -22 -84 -4 -61 -2 -70 21 -97 14 -17 33 -31
42 -31 15 0 15 -2 2 -10 -10 -6 -3 -8 23 -3 37 6 38 5 32 -19 -3 -13 -7 -33
-9 -44 -2 -16 -12 -19 -69 -22 -48 -2 -67 -7 -67 -16 0 -10 -22 -16 -80 -20
-44 -3 -116 -9 -160 -12 l-80 -6 0 -34 c0 -33 -1 -34 -40 -34 -33 0 -40 -3
-40 -20 0 -18 -7 -20 -80 -20 -73 0 -80 -2 -80 -20 0 -18 -7 -20 -74 -20 l-73
0 -7 -31 c-3 -17 -6 -44 -6 -60 l0 -29 -80 0 c-78 0 -80 -1 -80 -24 0 -13 -3
-38 -6 -55 -6 -27 -10 -31 -40 -31 -24 0 -34 5 -34 15 0 11 -11 15 -40 15 -36
0 -40 -2 -40 -25 0 -25 -1 -25 -80 -25 l-80 0 0 -55 c0 -30 -4 -56 -10 -56 -5
-1 -14 -3 -20 -4 -5 -1 -14 -3 -20 -4 -5 0 -10 -6 -10 -11 0 -16 -68 -80 -85
-80 -8 0 -15 -7 -15 -15 0 -11 -11 -15 -40 -15 -29 0 -40 -4 -40 -15 0 -8 -4
-15 -10 -15 -5 0 -10 -7 -10 -16 0 -22 -28 -47 -45 -40 -8 3 -15 1 -15 -5 0
-6 -4 -7 -10 -4 -5 3 -10 1 -10 -4 0 -6 -13 -11 -30 -11 -26 0 -30 -4 -30 -26
0 -31 -18 -51 -51 -56 -13 -1 -22 -7 -20 -13 2 -5 12 -9 23 -7 23 4 52 -24 44
-43 -5 -15 -40 -20 -121 -17 -34 1 -36 0 -15 -8 24 -8 24 -8 -7 -9 -27 -1 -33
-5 -33 -23 0 -13 -9 -38 -20 -56 -17 -28 -23 -32 -35 -22 -10 8 -28 10 -52 5
l-38 -7 33 -17 c18 -9 29 -20 25 -25 -4 -4 9 -5 30 -1 30 6 37 4 37 -8 0 -20
-54 -31 -115 -25 -28 4 -46 1 -49 -6 -3 -7 -5 -6 -5 2 -1 7 -5 10 -11 7 -5 -3
-10 -1 -10 5 0 6 -12 9 -27 8 -18 -2 -27 1 -25 10 1 8 -16 12 -62 12 -62 0
-66 -2 -90 -33 -27 -35 -66 -120 -66 -144 0 -27 -31 -82 -44 -77 -7 3 -27 -9
-45 -25 -30 -28 -32 -34 -26 -73 8 -51 16 -60 47 -62 16 -1 24 -8 26 -24 2
-14 9 -22 20 -20 9 2 17 -1 18 -7 2 -25 19 -47 45 -61 16 -8 28 -18 28 -22 -1
-4 -1 -26 0 -49 1 -31 5 -43 16 -43 8 0 15 4 15 9 0 14 32 23 43 12 7 -7 1
-14 -16 -22 -18 -8 -29 -23 -33 -46 -3 -18 -12 -33 -20 -33 -10 0 -14 -15 -14
-57 0 -81 -22 -263 -32 -263 -4 0 -8 -90 -8 -200 0 -162 3 -200 14 -200 14 0
26 -79 26 -181 0 -52 2 -59 20 -59 17 0 20 -7 20 -40 0 -29 4 -40 15 -40 11 0
15 -11 15 -40 0 -36 3 -40 25 -40 25 0 25 -1 25 -80 l0 -80 33 -1 c17 -1 35
-1 40 0 4 0 7 -28 7 -64 0 -57 2 -65 19 -65 20 0 31 -26 31 -77 0 -23 5 -33
15 -33 10 0 15 -11 15 -35 0 -25 4 -35 16 -35 9 0 31 -7 50 -16 28 -13 37 -14
49 -4 23 19 31 3 10 -20 -17 -19 -17 -20 15 -50 25 -24 29 -31 17 -36 -26 -10
-52 0 -49 19 2 13 -4 17 -25 17 -15 0 -23 -4 -17 -8 6 -4 13 -15 17 -24 4 -11
17 -18 34 -18 22 0 25 -2 13 -10 -8 -6 -26 -8 -41 -5 -17 4 -33 -1 -49 -15
-23 -20 -46 -27 -36 -11 3 4 -10 1 -29 -8 -37 -17 -49 -55 -17 -58 121 -12
154 -25 108 -43 -14 -5 -26 -14 -26 -19 0 -5 -10 -7 -22 -4 -13 3 -20 2 -16
-2 4 -4 22 -10 40 -12 18 -3 42 -6 53 -8 11 -1 26 -3 33 -4 6 0 12 -5 12 -10
0 -5 -6 -11 -12 -14 -7 -2 -3 -2 9 0 16 2 21 -1 17 -11 -7 -17 73 -39 95 -26
13 8 13 9 2 10 -8 0 -12 3 -9 6 8 7 79 -6 74 -15 -2 -3 7 -7 21 -7 31 -2 41
-13 23 -24 -13 -8 -13 -12 3 -27 14 -14 21 -15 36 -6 15 10 26 9 48 -1 15 -8
47 -17 71 -21 36 -6 42 -10 42 -32 0 -16 7 -27 20 -30 11 -3 20 -9 20 -14 0
-5 9 -9 20 -9 13 0 20 -7 20 -20 0 -11 5 -20 10 -20 6 0 10 -7 10 -15 0 -8 3
-15 8 -16 4 0 17 -2 30 -5 17 -3 22 1 22 16 0 30 29 24 48 -10 9 -16 20 -30
25 -30 4 0 7 -13 7 -30 0 -27 3 -30 30 -30 17 0 30 -5 30 -11 0 -5 5 -7 10 -4
6 3 10 2 10 -4 0 -6 7 -8 15 -5 17 7 45 -18 45 -40 0 -9 5 -16 10 -16 6 0 10
-6 10 -14 0 -10 22 -16 80 -21 69 -6 80 -10 80 -26 0 -15 7 -19 40 -19 39 0
40 -1 40 -35 0 -19 5 -36 10 -36 6 -1 37 -3 70 -4 33 -1 67 -3 75 -4 8 0 15
-10 15 -20 0 -17 10 -20 75 -26 73 -7 75 -8 75 -34 0 -27 1 -27 103 -39 56 -7
128 -12 160 -12 l57 0 0 -35 0 -35 120 0 c113 0 120 -1 120 -20 0 -18 7 -20
80 -20 64 0 80 -3 80 -15 0 -11 11 -15 40 -15 29 0 40 4 40 15 0 11 11 15 40
15 29 0 40 -4 40 -15 0 -11 11 -15 40 -15 22 0 40 -4 40 -10 0 -6 47 -10 120
-10 100 0 120 -2 120 -15 0 -12 16 -15 80 -15 64 0 80 -3 80 -15 0 -11 11 -15
40 -15 29 0 40 4 40 15 0 12 16 15 80 15 64 0 80 -3 80 -15 0 -11 11 -15 40
-15 29 0 40 4 40 15 0 11 -11 15 -40 15 -27 0 -40 4 -40 14 0 10 21 16 75 21
59 5 77 11 85 26 9 16 22 19 85 19 60 0 75 -3 75 -15 0 -11 11 -15 40 -15 29
0 40 4 40 15 0 12 16 15 80 15 64 0 80 3 80 15 0 12 14 15 63 15 110 0 169 11
175 32 6 24 82 27 82 3 0 -11 11 -15 40 -15 29 0 40 4 40 15 0 11 -11 15 -40
15 -29 0 -40 4 -40 15 0 11 11 15 40 15 22 0 40 5 40 10 0 6 18 10 40 10 29 0
40 4 40 15 0 11 11 15 40 15 33 0 40 -3 40 -20 0 -28 14 -25 30 5 12 23 18 25
59 21 37 -4 40 -3 16 3 -16 5 -23 9 -15 10 8 1 26 4 39 8 16 4 22 3 17 -5 -4
-7 11 -13 41 -18 27 -3 61 -13 77 -21 19 -10 41 -12 64 -8 32 6 34 5 22 -9
-15 -19 -5 -35 12 -18 15 15 48 16 48 1 0 -5 -3 -8 -7 -6 -5 2 -21 -2 -38 -10
l-30 -14 28 6 c16 3 35 1 41 -5 7 -5 27 -8 44 -6 18 2 32 -1 32 -5 0 -5 -7 -9
-15 -9 -8 0 -15 -7 -15 -16 0 -10 6 -14 15 -11 8 4 17 2 20 -3 4 -6 12 -10 18
-10 7 0 6 4 -3 10 -25 16 -4 21 29 7 37 -16 39 -28 8 -41 -21 -9 -21 -9 -2
-14 24 -5 34 -20 30 -42 -3 -13 2 -16 21 -12 13 2 24 11 24 18 0 8 6 14 13 15
6 0 3 4 -8 9 -15 7 -16 9 -4 9 9 1 22 7 29 15 6 8 18 12 27 9 12 -5 12 -7 1
-14 -10 -7 -9 -9 4 -9 9 0 21 -7 25 -15 7 -12 18 -13 58 -6 44 8 51 7 68 -12
14 -17 31 -22 70 -24 57 -2 64 -3 181 -28 54 -11 101 -15 145 -11 127 12 477
18 589 11 116 -7 138 -16 60 -24 -5 -1 -8 -6 -8 -12 0 -15 87 -4 160 20 30 11
77 22 103 25 27 3 58 13 70 21 30 21 52 19 95 -10 31 -21 38 -23 45 -10 4 8
18 15 29 15 12 0 29 6 37 14 19 16 159 76 179 76 7 0 23 6 35 12 31 17 127 36
133 26 3 -4 14 -8 24 -8 12 0 17 -5 14 -14 -3 -7 2 -16 11 -19 20 -8 85 23 85
40 0 7 12 13 28 13 32 1 69 25 52 35 -7 4 -1 14 16 27 20 16 28 18 34 8 5 -8
18 -10 38 -5 18 3 33 2 37 -4 10 -17 25 -13 36 12 5 12 30 31 55 41 27 11 50
29 56 42 6 13 14 24 18 24 7 0 10 19 10 58 0 12 4 22 8 22 5 0 9 14 9 31 0 18
7 37 16 44 10 7 17 17 17 24 0 6 6 11 14 11 14 0 31 29 21 38 -2 3 -11 0 -19
-7 -16 -13 -82 -6 -107 12 -21 16 -45 64 -52 107 -5 27 0 45 18 75 55 91 58
97 46 121 -12 27 -31 32 -31 9 0 -25 -46 -69 -64 -62 -18 7 -22 37 -5 37 10 0
40 59 46 91 1 10 -4 22 -12 29 -25 20 -7 30 55 30 42 0 59 4 63 15 4 8 1 17
-5 21 -6 4 -8 22 -4 45 5 29 3 39 -7 39 -8 0 -17 -3 -21 -7 -4 -5 -11 -8 -14
-8 -4 -1 -21 -9 -39 -18 -18 -9 -41 -17 -52 -17 -11 0 -27 -3 -35 -6 -15 -6
-15 -8 1 -19 19 -14 19 -14 -117 -36 -41 -6 -90 -17 -110 -25 -35 -13 -35 -13
35 -15 39 -1 79 -3 90 -4 11 0 34 5 52 12 18 7 44 13 58 13 22 0 25 -4 25 -34
0 -28 -10 -44 -55 -90 -31 -31 -60 -56 -65 -56 -5 0 -17 17 -26 38 -23 49 -21
48 -45 26 -17 -16 -34 -19 -92 -17 -45 2 -90 -3 -125 -14 -61 -19 -72 -13 -72
43 0 18 -8 38 -20 49 -26 23 -25 41 1 48 12 3 18 10 15 16 -4 6 -13 8 -20 5
-8 -3 -26 6 -41 20 -15 14 -24 26 -19 26 5 0 2 5 -6 11 -18 13 76 5 129 -10
25 -8 40 -7 59 3 25 13 23 14 -39 21 -93 10 -226 45 -249 65 -26 22 -26 33 0
25 23 -7 25 -2 10 26 -18 33 4 59 50 59 33 0 40 3 40 19 0 36 -26 48 -134 61
-83 10 -121 10 -178 1 -40 -7 -97 -11 -127 -9 -69 4 -74 -9 -22 -58 34 -30 39
-40 29 -52 -10 -11 -8 -17 7 -28 10 -8 13 -14 7 -14 -17 0 53 -67 89 -85 36
-19 34 -46 -9 -107 -37 -54 -38 -58 -13 -86 10 -12 21 -44 24 -72 3 -28 13
-63 21 -78 8 -15 17 -35 20 -45 3 -10 20 -24 37 -31 19 -8 27 -16 20 -20 -6
-4 -16 -4 -22 0 -22 13 -4 -15 39 -60 24 -25 51 -46 60 -46 9 0 31 14 49 32
18 17 35 30 37 27 2 -2 6 -23 7 -46 4 -47 -14 -73 -62 -93 -16 -7 -29 -18 -29
-25 0 -19 -120 -126 -132 -119 -6 4 -8 2 -5 -3 4 -6 0 -16 -8 -23 -11 -9 -15
-9 -15 -1 0 7 -4 10 -9 6 -5 -3 -33 4 -63 16 -30 11 -77 21 -107 21 -48 1 -57
-3 -77 -27 -21 -27 -24 -27 -46 -13 -13 8 -39 20 -59 27 -30 10 -38 18 -43 45
-3 18 -3 47 0 65 8 37 -14 60 -58 61 -15 0 -29 4 -32 9 -3 4 -18 11 -34 14
-15 3 -40 17 -54 31 -32 29 -109 42 -197 32 -44 -5 -77 -2 -131 13 -83 23
-110 39 -142 81 l-22 30 -27 -26 c-25 -23 -58 -26 -44 -4 10 17 -27 60 -59 69
-30 9 -30 9 -4 10 15 1 30 6 33 11 3 6 17 10 31 10 26 0 45 27 27 39 -6 3 -14
16 -18 29 -6 21 -11 23 -46 17 -39 -7 -58 9 -21 18 10 2 7 4 -8 4 -91 0 -91 9
0 19 36 3 67 8 69 10 3 3 9 51 10 87 1 13 10 17 36 17 28 0 35 4 35 20 0 17 7
20 39 20 40 0 40 0 43 43 3 37 6 42 28 42 16 0 26 6 28 18 2 9 8 17 13 17 5 0
9 9 9 20 0 13 7 20 20 20 11 0 20 5 20 10 0 6 7 10 15 10 9 0 15 9 15 23 0 27
23 63 62 96 18 15 28 34 28 51 0 32 10 39 83 53 l37 8 0 70 c0 62 2 71 20 76
18 5 20 14 20 79 0 62 3 75 19 84 15 8 21 26 26 85 l7 75 34 6 34 6 0 93 c0
134 10 215 26 215 11 0 14 32 14 160 0 128 -3 160 -14 160 -16 0 -26 81 -26
216 0 87 -1 94 -20 94 -18 0 -20 -7 -20 -70 0 -56 -3 -70 -15 -70 -12 0 -15
15 -15 75 0 54 4 75 13 75 9 0 11 12 9 40 -3 25 -9 40 -17 40 -10 0 -16 24
-21 80 -5 58 -10 80 -20 80 -9 0 -14 12 -14 35 0 24 -6 37 -20 45 -17 9 -20
21 -20 79 l0 67 -37 10 c-35 8 -38 12 -41 47 -3 29 -7 37 -23 37 -16 0 -19 7
-19 39 0 40 0 40 -42 43 -39 3 -43 6 -46 31 -2 15 -9 27 -18 27 -8 0 -14 5
-14 10 0 6 -9 10 -20 10 -13 0 -20 7 -20 20 0 11 -5 20 -11 20 -6 0 -9 9 -6
20 3 11 1 20 -4 20 -5 0 -9 9 -9 20 0 11 -4 20 -10 20 -5 0 -10 9 -10 20 0 17
-7 20 -38 20 -43 0 -72 23 -72 58 0 12 -6 22 -12 23 -51 3 -68 17 -68 57 0 16
-6 22 -23 22 -29 0 -57 29 -57 58 0 21 8 25 53 25 10 0 17 7 17 18 0 16 -10
19 -72 21 -66 3 -73 5 -72 23 0 18 -5 20 -43 16 -38 -3 -43 -1 -43 18 0 17 -6
21 -34 21 -37 0 -33 -6 -52 90 -5 29 -6 29 -77 32 l-72 3 -3 38 -3 37 -78 0
c-57 0 -79 4 -78 13 2 61 -2 67 -43 67 -29 0 -40 4 -40 15 0 11 -11 15 -40 15
-36 0 -40 3 -40 25 0 22 -4 25 -34 25 -46 0 -66 9 -59 26 3 8 -1 14 -11 14 -9
0 -16 -4 -16 -10 0 -5 -8 -10 -17 -10 -13 0 -14 3 -5 12 20 20 14 28 -19 28
-17 0 -39 5 -50 10 -11 6 -18 7 -17 1 2 -5 -1 -9 -6 -9 -5 0 -13 -7 -18 -16
-5 -9 -14 -14 -19 -10 -6 4 -6 11 2 20 6 8 9 17 6 20 -9 9 -27 -5 -27 -21 0
-8 -9 -13 -20 -12 -23 1 -28 17 -5 17 8 0 15 3 15 8 -1 16 -32 47 -48 48 -9 1
-41 2 -69 3 -46 1 -53 4 -53 21 0 16 7 20 35 20 23 0 35 5 35 14 0 14 -85 26
-187 26 -46 0 -53 3 -53 20 0 18 -7 20 -75 21 -41 1 -79 2 -84 3 -15 2 -25 16
-12 16 7 0 9 5 6 10 -10 17 -25 11 -25 -10 0 -11 -5 -20 -11 -20 -7 0 -9 10
-5 25 5 19 2 27 -11 32 -9 4 -19 1 -21 -5 -2 -7 -19 -12 -37 -12 -27 0 -34 4
-37 23 -2 12 -7 22 -13 22 -5 0 -11 -10 -13 -22 -2 -16 2 -23 12 -23 18 0 21
-27 6 -50 -8 -13 -9 -13 -14 0 -15 50 -17 52 -36 47 -16 -4 -20 0 -20 18 0 13
-4 27 -10 30 -5 3 -10 1 -10 -5 0 -6 -4 -9 -9 -6 -5 4 -12 0 -15 -6 -4 -7 -4
2 -1 20 4 27 1 32 -16 32 -11 0 -29 5 -40 10 -15 8 -21 7 -25 -4 -3 -8 -12
-12 -20 -9 -13 5 -20 -21 -15 -51 1 -4 -10 -5 -24 -2 -14 4 -25 2 -25 -4 0 -5
-7 -10 -15 -10 -10 0 -15 10 -15 29 0 40 -18 52 -62 42 -25 -6 -38 -5 -41 3
-3 8 -11 7 -31 -2 -15 -6 -47 -12 -71 -12 -25 0 -45 -4 -45 -10 0 -5 7 -10 15
-10 33 0 2 -44 -38 -54 -18 -4 -33 -18 -43 -39 l-15 -32 5 30 c3 17 8 43 12
59 l7 29 -43 -7 c-38 -6 -42 -5 -30 9 15 18 13 22 -15 27 -11 1 -22 6 -25 10
-3 4 -22 8 -43 10 -38 2 -76 35 -120 101 -25 38 -41 35 -34 -7 3 -21 0 -41 -8
-52 -12 -17 -13 -16 -20 7 -4 13 -13 27 -19 31 -18 12 -66 9 -66 -4 0 -10 -2
-10 -8 0 -5 7 -16 10 -24 7 -10 -4 -24 4 -37 21 -17 21 -32 28 -72 32 -35 3
-47 8 -37 14 8 6 -4 7 -35 3 -36 -5 -55 -2 -72 9 -14 9 -44 16 -67 16 -67 0
-88 9 -88 36 0 23 7 28 40 25 8 0 22 3 30 8 12 8 12 13 -4 30 -15 17 -18 31
-13 70 9 80 -4 87 -90 47z"/>
<path d="M5613 9417 c5 -15 37 -22 37 -9 0 5 -9 12 -21 15 -13 3 -19 1 -16 -6z"/>
<path d="M7580 9271 c-13 -26 -13 -31 5 -31 9 0 15 9 15 25 0 30 -6 32 -20 6z"/>
<path d="M6533 9218 c2 -7 10 -13 17 -13 7 0 15 6 18 13 2 7 -5 12 -18 12 -13
0 -20 -5 -17 -12z"/>
<path d="M7630 9190 c0 -5 9 -10 20 -10 11 0 20 5 20 10 0 6 -9 10 -20 10 -11
0 -20 -4 -20 -10z"/>
<path d="M7654 9095 c-2 -20 3 -25 23 -25 15 0 23 5 20 13 -2 6 -10 11 -16 10
-6 -2 -11 4 -11 12 0 26 -15 16 -16 -10z"/>
<path d="M7620 9095 c0 -8 2 -15 4 -15 2 0 6 7 10 15 3 8 1 15 -4 15 -6 0 -10
-7 -10 -15z"/>
<path d="M8065 9099 c-4 -6 -3 -15 3 -21 6 -6 11 -4 15 6 7 18 -9 31 -18 15z"/>
<path d="M8043 8988 c2 -7 10 -13 17 -13 7 0 15 6 18 13 2 7 -5 12 -18 12 -13
0 -20 -5 -17 -12z"/>
<path d="M8100 8971 c0 -9 24 -21 41 -21 5 0 9 7 9 15 0 9 -9 15 -25 15 -14 0
-25 -4 -25 -9z"/>
<path d="M8070 8950 c0 -5 5 -10 11 -10 5 0 7 5 4 10 -3 6 -8 10 -11 10 -2 0
-4 -4 -4 -10z"/>
<path d="M8188 8823 c7 -3 16 -2 19 1 4 3 -2 6 -13 5 -11 0 -14 -3 -6 -6z"/>
<path d="M9360 7972 c0 -15 6 -17 35 -14 21 3 35 10 35 18 0 9 -12 14 -35 14
-27 0 -35 -4 -35 -18z"/>
<path d="M3397 7333 c-12 -11 -8 -23 8 -23 8 0 15 7 15 15 0 16 -12 20 -23 8z"/>
<path d="M3563 5915 c0 -22 2 -30 4 -17 2 12 2 30 0 40 -3 9 -5 -1 -4 -23z"/>
<path d="M10622 5430 c-33 -28 -18 -43 36 -37 53 6 71 26 39 44 -31 17 -48 15
-75 -7z"/>
<path d="M10930 5425 c6 -8 9 -18 6 -23 -3 -5 10 -8 28 -5 22 2 40 -2 49 -12
20 -20 27 -19 27 4 0 22 -54 51 -95 51 -23 0 -25 -2 -15 -15z"/>
<path d="M3680 5380 c0 -6 7 -10 15 -10 8 0 15 2 15 4 0 2 -7 6 -15 10 -8 3
-15 1 -15 -4z"/>
<path d="M10890 5350 c0 -5 5 -10 10 -10 6 0 10 5 10 10 0 6 -4 10 -10 10 -5
0 -10 -4 -10 -10z"/>
<path d="M10950 5300 c-10 -7 1 -8 35 -4 28 4 52 8 54 10 10 9 -75 3 -89 -6z"/>
<path d="M9200 5210 c0 -11 7 -20 15 -20 8 0 15 9 15 20 0 11 -7 20 -15 20 -8
0 -15 -9 -15 -20z"/>
</g>
</svg>
